<svg width="120" height="60" viewBox="0 0 120 60" fill="none" xmlns="http://www.w3.org/2000/svg">
<g filter="url(#filter0_d_511_10)">
<path d="M78.75 12.5L41.25 12.5C38.9584 12.5 37.0834 14.375 37.0834 16.6667V33.3333C37.0834 35.625 38.9584 37.5 41.25 37.5H78.75C81.0417 37.5 82.9167 35.625 82.9167 33.3333V16.6667C82.9167 14.375 81.0417 12.5 78.75 12.5ZM57.9167 27.0833H51.6667V33.3333H47.5V27.0833H41.25V22.9167H47.5V16.6667H51.6667V22.9167H57.9167V27.0833ZM67.2917 31.25C65.5625 31.25 64.1667 29.8542 64.1667 28.125C64.1667 26.3958 65.5625 25 67.2917 25C69.0209 25 70.4167 26.3958 70.4167 28.125C70.4167 29.8542 69.0209 31.25 67.2917 31.25ZM75.625 25C73.8959 25 72.5 23.6042 72.5 21.875C72.5 20.1458 73.8959 18.75 75.625 18.75C77.3542 18.75 78.75 20.1458 78.75 21.875C78.75 23.6042 77.3542 25 75.625 25Z" fill="#333C83"/>
<path d="M78.75 12.5L41.25 12.5C38.9584 12.5 37.0834 14.375 37.0834 16.6667V33.3333C37.0834 35.625 38.9584 37.5 41.25 37.5H78.75C81.0417 37.5 82.9167 35.625 82.9167 33.3333V16.6667C82.9167 14.375 81.0417 12.5 78.75 12.5ZM57.9167 27.0833H51.6667V33.3333H47.5V27.0833H41.25V22.9167H47.5V16.6667H51.6667V22.9167H57.9167V27.0833ZM67.2917 31.25C65.5625 31.25 64.1667 29.8542 64.1667 28.125C64.1667 26.3958 65.5625 25 67.2917 25C69.0209 25 70.4167 26.3958 70.4167 28.125C70.4167 29.8542 69.0209 31.25 67.2917 31.25ZM75.625 25C73.8959 25 72.5 23.6042 72.5 21.875C72.5 20.1458 73.8959 18.75 75.625 18.75C77.3542 18.75 78.75 20.1458 78.75 21.875C78.75 23.6042 77.3542 25 75.625 25Z" stroke="#333C83"/>
</g>
<path d="M7.392 47.28C7.21467 46.9533 6.958 46.706 6.622 46.538C6.29533 46.3607 5.908 46.272 5.46 46.272C4.68533 46.272 4.06467 46.5287 3.598 47.042C3.13133 47.546 2.898 48.2227 2.898 49.072C2.898 49.9773 3.14067 50.6867 3.626 51.2C4.12067 51.704 4.79733 51.956 5.656 51.956C6.244 51.956 6.73867 51.8067 7.14 51.508C7.55067 51.2093 7.84933 50.78 8.036 50.22H4.998V48.456H10.206V50.682C10.0287 51.2793 9.72533 51.8347 9.296 52.348C8.876 52.8613 8.33933 53.2767 7.686 53.594C7.03267 53.9113 6.29533 54.07 5.474 54.07C4.50333 54.07 3.63533 53.86 2.87 53.44C2.114 53.0107 1.52133 52.418 1.092 51.662C0.672 50.906 0.462 50.0427 0.462 49.072C0.462 48.1013 0.672 47.238 1.092 46.482C1.52133 45.7167 2.114 45.124 2.87 44.704C3.626 44.2747 4.48933 44.06 5.46 44.06C6.636 44.06 7.62533 44.3447 8.428 44.914C9.24 45.4833 9.77667 46.272 10.038 47.28H7.392ZM11.0561 50.08C11.0561 49.2773 11.2054 48.5727 11.5041 47.966C11.8121 47.3593 12.2274 46.8927 12.7501 46.566C13.2727 46.2393 13.8561 46.076 14.5001 46.076C15.0507 46.076 15.5314 46.188 15.9421 46.412C16.3621 46.636 16.6841 46.93 16.9081 47.294V46.188H19.3021V54H16.9081V52.894C16.6747 53.258 16.3481 53.552 15.9281 53.776C15.5174 54 15.0367 54.112 14.4861 54.112C13.8514 54.112 13.2727 53.9487 12.7501 53.622C12.2274 53.286 11.8121 52.8147 11.5041 52.208C11.2054 51.592 11.0561 50.8827 11.0561 50.08ZM16.9081 50.094C16.9081 49.4967 16.7401 49.0253 16.4041 48.68C16.0774 48.3347 15.6761 48.162 15.2001 48.162C14.7241 48.162 14.3181 48.3347 13.9821 48.68C13.6554 49.016 13.4921 49.4827 13.4921 50.08C13.4921 50.6773 13.6554 51.1533 13.9821 51.508C14.3181 51.8533 14.7241 52.026 15.2001 52.026C15.6761 52.026 16.0774 51.8533 16.4041 51.508C16.7401 51.1627 16.9081 50.6913 16.9081 50.094ZM31.002 46.104C31.9727 46.104 32.7427 46.398 33.312 46.986C33.8907 47.574 34.18 48.3907 34.18 49.436V54H31.8V49.758C31.8 49.254 31.6647 48.8667 31.394 48.596C31.1327 48.316 30.7687 48.176 30.302 48.176C29.8353 48.176 29.4667 48.316 29.196 48.596C28.9347 48.8667 28.804 49.254 28.804 49.758V54H26.424V49.758C26.424 49.254 26.2887 48.8667 26.018 48.596C25.7567 48.316 25.3927 48.176 24.926 48.176C24.4593 48.176 24.0907 48.316 23.82 48.596C23.5587 48.8667 23.428 49.254 23.428 49.758V54H21.034V46.188H23.428V47.168C23.6707 46.8413 23.988 46.5847 24.38 46.398C24.772 46.202 25.2153 46.104 25.71 46.104C26.298 46.104 26.8207 46.23 27.278 46.482C27.7447 46.734 28.1087 47.0933 28.37 47.56C28.6407 47.1307 29.0093 46.7807 29.476 46.51C29.9427 46.2393 30.4513 46.104 31.002 46.104ZM43.2183 49.968C43.2183 50.192 43.2043 50.4253 43.1763 50.668H37.7583C37.7957 51.1533 37.9497 51.5267 38.2203 51.788C38.5003 52.04 38.841 52.166 39.2423 52.166C39.8397 52.166 40.255 51.914 40.4883 51.41H43.0363C42.9057 51.9233 42.6677 52.3853 42.3223 52.796C41.9863 53.2067 41.5617 53.5287 41.0483 53.762C40.535 53.9953 39.961 54.112 39.3263 54.112C38.561 54.112 37.8797 53.9487 37.2823 53.622C36.685 53.2953 36.2183 52.8287 35.8823 52.222C35.5463 51.6153 35.3783 50.906 35.3783 50.094C35.3783 49.282 35.5417 48.5727 35.8683 47.966C36.2043 47.3593 36.671 46.8927 37.2683 46.566C37.8657 46.2393 38.5517 46.076 39.3263 46.076C40.0823 46.076 40.7543 46.2347 41.3423 46.552C41.9303 46.8693 42.3877 47.322 42.7143 47.91C43.0503 48.498 43.2183 49.184 43.2183 49.968ZM40.7683 49.338C40.7683 48.9273 40.6283 48.6007 40.3483 48.358C40.0683 48.1153 39.7183 47.994 39.2983 47.994C38.897 47.994 38.5563 48.1107 38.2763 48.344C38.0057 48.5773 37.8377 48.9087 37.7723 49.338H40.7683ZM47.0421 49.072C47.0421 48.1013 47.2521 47.238 47.6721 46.482C48.0921 45.7167 48.6754 45.124 49.4221 44.704C50.1781 44.2747 51.0321 44.06 51.9841 44.06C53.1507 44.06 54.1494 44.368 54.9801 44.984C55.8107 45.6 56.3661 46.44 56.6461 47.504H54.0141C53.8181 47.0933 53.5381 46.7807 53.1741 46.566C52.8194 46.3513 52.4134 46.244 51.9561 46.244C51.2187 46.244 50.6214 46.5007 50.1641 47.014C49.7067 47.5273 49.4781 48.2133 49.4781 49.072C49.4781 49.9307 49.7067 50.6167 50.1641 51.13C50.6214 51.6433 51.2187 51.9 51.9561 51.9C52.4134 51.9 52.8194 51.7927 53.1741 51.578C53.5381 51.3633 53.8181 51.0507 54.0141 50.64H56.6461C56.3661 51.704 55.8107 52.544 54.9801 53.16C54.1494 53.7667 53.1507 54.07 51.9841 54.07C51.0321 54.07 50.1781 53.86 49.4221 53.44C48.6754 53.0107 48.0921 52.418 47.6721 51.662C47.2521 50.906 47.0421 50.0427 47.0421 49.072ZM61.6681 54.112C60.9028 54.112 60.2121 53.9487 59.5961 53.622C58.9895 53.2953 58.5088 52.8287 58.1541 52.222C57.8088 51.6153 57.6361 50.906 57.6361 50.094C57.6361 49.2913 57.8135 48.5867 58.1681 47.98C58.5228 47.364 59.0081 46.8927 59.6241 46.566C60.2401 46.2393 60.9308 46.076 61.6961 46.076C62.4615 46.076 63.1521 46.2393 63.7681 46.566C64.3841 46.8927 64.8695 47.364 65.2241 47.98C65.5788 48.5867 65.7561 49.2913 65.7561 50.094C65.7561 50.8967 65.5741 51.606 65.2101 52.222C64.8555 52.8287 64.3655 53.2953 63.7401 53.622C63.1241 53.9487 62.4335 54.112 61.6681 54.112ZM61.6681 52.04C62.1255 52.04 62.5128 51.872 62.8301 51.536C63.1568 51.2 63.3201 50.7193 63.3201 50.094C63.3201 49.4687 63.1615 48.988 62.8441 48.652C62.5361 48.316 62.1535 48.148 61.6961 48.148C61.2295 48.148 60.8421 48.316 60.5341 48.652C60.2261 48.9787 60.0721 49.4593 60.0721 50.094C60.0721 50.7193 60.2215 51.2 60.5201 51.536C60.8281 51.872 61.2108 52.04 61.6681 52.04ZM69.4202 43.64V54H67.0262V43.64H69.4202ZM73.5491 43.64V54H71.1551V43.64H73.5491ZM82.648 49.968C82.648 50.192 82.634 50.4253 82.606 50.668H77.188C77.2253 51.1533 77.3793 51.5267 77.65 51.788C77.93 52.04 78.2707 52.166 78.672 52.166C79.2693 52.166 79.6847 51.914 79.918 51.41H82.466C82.3353 51.9233 82.0973 52.3853 81.752 52.796C81.416 53.2067 80.9913 53.5287 80.478 53.762C79.9647 53.9953 79.3907 54.112 78.756 54.112C77.9907 54.112 77.3093 53.9487 76.712 53.622C76.1147 53.2953 75.648 52.8287 75.312 52.222C74.976 51.6153 74.808 50.906 74.808 50.094C74.808 49.282 74.9713 48.5727 75.298 47.966C75.634 47.3593 76.1007 46.8927 76.698 46.566C77.2953 46.2393 77.9813 46.076 78.756 46.076C79.512 46.076 80.184 46.2347 80.772 46.552C81.36 46.8693 81.8173 47.322 82.144 47.91C82.48 48.498 82.648 49.184 82.648 49.968ZM80.198 49.338C80.198 48.9273 80.058 48.6007 79.778 48.358C79.498 48.1153 79.148 47.994 78.728 47.994C78.3267 47.994 77.986 48.1107 77.706 48.344C77.4353 48.5773 77.2673 48.9087 77.202 49.338H80.198ZM83.435 50.094C83.435 49.282 83.5983 48.5727 83.925 47.966C84.261 47.3593 84.723 46.8927 85.311 46.566C85.9083 46.2393 86.5896 46.076 87.355 46.076C88.335 46.076 89.1516 46.3327 89.805 46.846C90.4676 47.3593 90.9016 48.0827 91.107 49.016H88.559C88.3443 48.4187 87.929 48.12 87.313 48.12C86.8743 48.12 86.5243 48.2927 86.263 48.638C86.0016 48.974 85.871 49.4593 85.871 50.094C85.871 50.7287 86.0016 51.2187 86.263 51.564C86.5243 51.9 86.8743 52.068 87.313 52.068C87.929 52.068 88.3443 51.7693 88.559 51.172H91.107C90.9016 52.0867 90.4676 52.8053 89.805 53.328C89.1423 53.8507 88.3256 54.112 87.355 54.112C86.5896 54.112 85.9083 53.9487 85.311 53.622C84.723 53.2953 84.261 52.8287 83.925 52.222C83.5983 51.6153 83.435 50.906 83.435 50.094ZM96.7415 51.97V54H95.5235C94.6555 54 93.9789 53.79 93.4935 53.37C93.0082 52.9407 92.7655 52.2453 92.7655 51.284V48.176H91.8135V46.188H92.7655V44.284H95.1595V46.188H96.7275V48.176H95.1595V51.312C95.1595 51.5453 95.2155 51.7133 95.3275 51.816C95.4395 51.9187 95.6262 51.97 95.8875 51.97H96.7415ZM99.279 45.376C98.859 45.376 98.5137 45.2547 98.243 45.012C97.9817 44.76 97.851 44.452 97.851 44.088C97.851 43.7147 97.9817 43.4067 98.243 43.164C98.5137 42.912 98.859 42.786 99.279 42.786C99.6897 42.786 100.026 42.912 100.287 43.164C100.558 43.4067 100.693 43.7147 100.693 44.088C100.693 44.452 100.558 44.76 100.287 45.012C100.026 45.2547 99.6897 45.376 99.279 45.376ZM100.469 46.188V54H98.075V46.188H100.469ZM105.76 54.112C104.995 54.112 104.304 53.9487 103.688 53.622C103.081 53.2953 102.601 52.8287 102.246 52.222C101.901 51.6153 101.728 50.906 101.728 50.094C101.728 49.2913 101.905 48.5867 102.26 47.98C102.615 47.364 103.1 46.8927 103.716 46.566C104.332 46.2393 105.023 46.076 105.788 46.076C106.553 46.076 107.244 46.2393 107.86 46.566C108.476 46.8927 108.961 47.364 109.316 47.98C109.671 48.5867 109.848 49.2913 109.848 50.094C109.848 50.8967 109.666 51.606 109.302 52.222C108.947 52.8287 108.457 53.2953 107.832 53.622C107.216 53.9487 106.525 54.112 105.76 54.112ZM105.76 52.04C106.217 52.04 106.605 51.872 106.922 51.536C107.249 51.2 107.412 50.7193 107.412 50.094C107.412 49.4687 107.253 48.988 106.936 48.652C106.628 48.316 106.245 48.148 105.788 48.148C105.321 48.148 104.934 48.316 104.626 48.652C104.318 48.9787 104.164 49.4593 104.164 50.094C104.164 50.7193 104.313 51.2 104.612 51.536C104.92 51.872 105.303 52.04 105.76 52.04ZM115.878 46.104C116.793 46.104 117.521 46.4027 118.062 47C118.613 47.588 118.888 48.4 118.888 49.436V54H116.508V49.758C116.508 49.2353 116.373 48.8293 116.102 48.54C115.831 48.2507 115.467 48.106 115.01 48.106C114.553 48.106 114.189 48.2507 113.918 48.54C113.647 48.8293 113.512 49.2353 113.512 49.758V54H111.118V46.188H113.512V47.224C113.755 46.8787 114.081 46.608 114.492 46.412C114.903 46.2067 115.365 46.104 115.878 46.104Z" fill="#F24A72"/>
<defs>
<filter id="filter0_d_511_10" x="33.0834" y="8.5" width="53.8334" height="33" filterUnits="userSpaceOnUse" color-interpolation-filters="sRGB">
<feFlood flood-opacity="0" result="BackgroundImageFix"/>
<feColorMatrix in="SourceAlpha" type="matrix" values="0 0 0 0 0 0 0 0 0 0 0 0 0 0 0 0 0 0 127 0" result="hardAlpha"/>
<feOffset/>
<feGaussianBlur stdDeviation="2"/>
<feComposite in2="hardAlpha" operator="out"/>
<feColorMatrix type="matrix" values="0 0 0 0 0 0 0 0 0 0 0 0 0 0 0 0 0 0 0.25 0"/>
<feBlend mode="normal" in2="BackgroundImageFix" result="effect1_dropShadow_511_10"/>
<feBlend mode="normal" in="SourceGraphic" in2="effect1_dropShadow_511_10" result="shape"/>
</filter>
</defs>
</svg>
