<svg width="46" height="26" viewBox="0 0 46 26" fill="none" xmlns="http://www.w3.org/2000/svg">
<path d="M41.75 0.5L4.25004 0.5C1.95837 0.5 0.083374 2.375 0.083374 4.66667L0.083374 21.3333C0.083374 23.625 1.95837 25.5 4.25004 25.5L41.75 25.5C44.0417 25.5 45.9167 23.625 45.9167 21.3333V4.66667C45.9167 2.375 44.0417 0.5 41.75 0.5ZM20.9167 15.0833L14.6667 15.0833L14.6667 21.3333H10.5L10.5 15.0833H4.25004V10.9167H10.5V4.66667H14.6667V10.9167L20.9167 10.9167V15.0833ZM30.2917 19.25C28.5625 19.25 27.1667 17.8542 27.1667 16.125C27.1667 14.3958 28.5625 13 30.2917 13C32.0209 13 33.4167 14.3958 33.4167 16.125C33.4167 17.8542 32.0209 19.25 30.2917 19.25ZM38.625 13C36.8959 13 35.5 11.6042 35.5 9.875C35.5 8.14583 36.8959 6.75 38.625 6.75C40.3542 6.75 41.75 8.14583 41.75 9.875C41.75 11.6042 40.3542 13 38.625 13Z" fill="#F24A72"/>
</svg>
